<svg height="512" width="512" xmlns="http://www.w3.org/2000/svg"><path d="m125.519165 138.2930298h-43.9456176l.000061-61.9559326 43.9456177.000061zm253.5962525-61.9559326h-39.3922729l-.0001221 61.9559326h39.3922729zm80.9047241 17.831665-72.8810425-3.9036255-.000061 34.1002808 72.8810425-4.5721436zm-269.9311523 143.0001221 53.9966431 96.8598633 53.828125-96.8598633h33.0717163l.000061-174.2537842c0-10.8082275-8.7617798-19.5700073-19.5699463-19.5700073l-158.8244019-.0001221c-10.8082275 0-19.5700073 8.7617798-19.5700073 19.5700073l-.000061 174.2539062h57.0678711zm-57.0679322 47.8027954-.000061 164.1132202c0 10.8081665 8.7617798 19.5699463 19.5699463 19.5700073l81.7216187.000061zm-51.4477539 147.8534546 43.9456177.000061.000061-61.9559326-43.9456177-.000061zm-81.5731811-313.0321655 72.8811035 4.5722656v-34.1003418l-72.8810425 3.9035644zm-.0001221 294.5321044 72.8810425 4.5722656.000061-34.1003418-72.8811035 3.9035645zm243.9586792 29.5345765 102.4672546-185.373291h-37.1135254l-65.3537292 117.5993347-65.3537292-119.3448487h-37.1135254zm18.8328857-6.3357239 99.5348511-178.3474731 53.9281921 100.8342285 7.7693176-14.8572083-45.9303894-85.7334595h36.7900085l28.1066284 51.878479 29.2492065-50.1329651h37.70401l-48.8057556 85.8349304 50.8623352 93.1417542h-36.1044617l-33.1338196-59.9159851-33.4956665 59.0432434h-37.2470093l18.3188171-32.6371765h-74.1702881l-16.8144836 30.8916321zm123.1070862-64.574585-24.3420105-45.764801-25.0181885 45.764801zm-260.3796386-100.2574463-43.9456253-.0000305-.0000763 61.9559326h43.94561zm-52.637909 13.9277649-72.8810806 3.9035339-.0000159 25.6245117 72.881073 4.5722961zm52.6379471-49.4507751h-43.9456177l.0000763-62.6543884 43.9456177.0000305zm214.2039108-62.6543885 39.3922729.0000305-.0000916 62.6543579h-39.3922729zm-266.8418197 48.028122-72.881073-4.5722656.0000172-25.6245117 72.8810806-3.9035492zm314.2578659-34.1001129 72.881073 3.9036407-.0000305 25.624527-72.881073 4.5721588z"/></svg>