<svg height="512" width="512" xmlns="http://www.w3.org/2000/svg"><path d="m379.1151733 236.470459-39.392334-.000061.0001221-61.9559326 39.3922729.000061zm-379.1151733 177.8546142 72.8810425 4.5722656.000061-34.1003418-72.8811035 3.9035645zm379.1154175-337.987976h-39.3922729l-.0001221 61.9559326h39.3922729zm80.9047241 17.831665-72.8810425-3.9036255-.000061 34.1002808 72.8810425-4.5721436zm-460.0201416 221.9789429 72.8811035 4.5722656v-34.1003418l-72.8811035 3.9035645zm460.0200806-123.8015747-72.8810425-3.9036255-.000061 34.1003418 72.8810425-4.5722046zm-378.4467774 142.3016357h43.9456177l.000061-61.9558716-43.9456177-.000061zm-81.5732422-116.6774292 72.8811035 4.5722656v-34.1003418l-72.8811035 3.9035645zm81.5733643 18.500061h43.9456177l.000061-61.9558716-43.9456177-.000061zm249.4120483 12.2045899.000061-185.7598877c0-10.8082275-8.7617798-19.5700073-19.5699463-19.5700073l-158.8244019-.0001221c-10.8082275 0-19.5700073 8.7617798-19.5700073 19.5700073l-.0001831 386.1699219c0 10.8081665 8.7617798 19.5699463 19.5699463 19.5700073h66.1502686c-106.5016098-68.4158935-42.315689-190.6481933 112.2442627-219.9799194zm-249.4119262-110.381958h43.9456177l.000061-61.9558716-43.9456177-.000061zm-.0002442 294.5321045 43.9456177.000061.000061-61.9559326-43.9456177-.000061zm-81.5731811-313.0321655 72.8811035 4.5722656v-34.1003418l-72.8810425 3.9035644zm296.7876281 225.5811767c4.9028015 0 6.9354248 2.4162292 6.9354248 6.3428955v46.0834961h16.6586609v-46.1698608c0-9.3737488-4.9851379-19.6935425-19.6192322-19.6935425l-34.4541626-.0342102v65.8975525h16.6887817v-52.4263916zm111.8062745 13.274231h-25.6749268c-.0274048-18.1135254 26.0750427-19.3802185 25.6749268 0zm-11.3923645-27.8621827c-17.5403748 0-30.8890076 12.2800903-30.8890076 33.9721069 0 25.3876953 15.2888489 34.0986633 31.2646179 34.0986633 12.2017517 0 19.1271362-3.9567871 25.7271423-10.4724426l-10.3077393-9.8417358c-10.7192688 11.4244995-30.5825806 7.1174011-30.0775757-8.5362244h42.3335571c1.5091249-24.0297546-8.9514464-38.8654174-28.0509947-39.2203674zm-35.1169129 66.9319153v-13.9029541h-6.7787781c-3.9748535 0-5.7825317-2.1250305-5.7825317-5.9532776v-32.4878234h12.5612488v-13.4711304h-12.5612488v-17.9541626h-16.6627197v64.9575806c0 9.3476562 5.7684937 18.8117676 19.3641663 18.8117676h9.8598632zm-110.6253052-90.8835144h-16.8032684v15.9617004h16.8032684zm.0424042 25.0683289h-16.845459l-.0181885 48.9416199c0 8.807373 4.2801514 16.4397278 16.8635254 17.6488647zm200.2714081-27.3399658h-16.8173218v74.8957214c0 8.7952881 4.2600708 16.4156189 16.8173218 17.62677zm11.4284973 93.1792907v-17.7432861c22.7746277-13.5615234 35.5267029-37.1556396 31.5116882-59.785614-12.0009155-68.438324-143.7216797-68.7195129-236.5976562-20.9890442v-6.2485046c92.9703674-56.5980835 237.2082214-51.8941345 252.4488831 22.4110718 8.1626281 39.8068542-19.9506226 72.3268127-47.3629151 82.3553771zm-6.2384949 12.870575v24.5882874c-31.5337524 17.3074036-76.8921509 28.4506836-111.5471497 31.8330078-87.5895691 8.5121155-144.9749908-17.1206055-155.6984863-62.352478-8.4016418-35.2736206 6.192276-65.1262512 33.0823364-88.7062683v8.7029114c-14.9373627 16.2750549-26.1971283 42.4761658-21.6177063 67.1930237 9.3556976 50.1387024 76.2193298 59.452179 140.3835144 53.5210266 39.4352723-3.6514894 86.7841187-17.7412416 115.3974915-34.7795106z"/></svg>