<svg height="512" width="512" xmlns="http://www.w3.org/2000/svg"><path d="m0 290.5231934 72.8811035-3.9035645v34.1003418l-72.8811035-4.5722656zm460.0201416-196.3544312-72.8810425-3.9036255-.000061 34.1002808 72.8810425-4.5721436zm-460.0201416 320.156311 72.8810425 4.5722656.000061-34.1003418-72.8811035 3.9035645zm379.1154175-337.987976h-39.3922729l-.0001221 61.9559326h39.3922729zm-379.1153565 141.6332397 72.8811035 4.5722656v-34.1003418l-72.8811035 3.9035645zm81.5734864-79.6773071h43.9456177l.000061-61.9558716-43.9456177-.000061zm193.5578003 237.3325806 55.2279663-55.281189-83.4611206-83.8744202h84.0872803l.000061-173.5549011c0-10.8082275-8.7617798-19.5700073-19.5699463-19.5700073l-158.8244019-.0001221c-10.8082275 0-19.5700073 8.7617798-19.5700073 19.5700073l-.0001831 386.1699219c0 10.8081665 8.7617798 19.5699463 19.5699463 19.5700073l122.5404053.000061zm-193.5579224-139.1552125h43.9456177l.000061-61.9558716-43.9456177-.000061zm-.0001221 98.1773682h43.9456177l.000061-61.9558716-43.9456177-.000061zm0 98.1773682 43.9456177.000061.000061-61.9559326-43.9456177-.000061zm-81.5731811-313.0321655 72.8811035 4.5722656v-34.1003418l-72.8810425 3.9035644zm511.9998474 348.86203-58.9143372-58.8839722v-94.1289978h-94.1585999l-58.7957153-58.8839722h211.8686523v211.8969422zm-153.072937-58.8839722v-84.7191772l-58.7957153 58.8523865v84.7507629h84.6858215l58.8511658-58.8839722zm-19.2040711-235.2565308 39.3922729.0000305-.0000916 61.9559326-39.3922729-.0000305zm47.4160462 13.9280091 72.881073 3.9036407-.0000305 25.624527-72.881073 4.5721588z"/></svg>