<?xml version="1.0" standalone="no"?>
<!DOCTYPE svg PUBLIC "-//W3C//DTD SVG 20010904//EN"
 "http://www.w3.org/TR/2001/REC-SVG-20010904/DTD/svg10.dtd">
<svg version="1.0" xmlns="http://www.w3.org/2000/svg"
 width="10pt" height="10pt" viewBox="0 0 10 10"
 preserveAspectRatio="xMidYMid meet">

<g transform="translate(0.000000,10) scale(0.100000,-0.100000)"
fill="#000000" stroke="none">
<path d="M2715 4378 c112 -183 194 -415 225 -638 14 -98 14 -344 -1 -445 -37
-266 -143 -527 -309 -758 -66 -92 -272 -293 -375 -366 -100 -70 -309 -176
-425 -215 -309 -103 -662 -111 -970 -22 -47 13 -93 28 -103 32 -16 6 -15 0 7
-58 169 -449 508 -817 947 -1027 259 -124 507 -180 796 -181 886 -1 1645 611
1829 1475 199 934 -336 1863 -1245 2162 -116 38 -323 83 -383 83 -18 0 -18 -3
7 -42z"/>
</g>
</svg>
