<?xml version="1.0" standalone="no"?>
<!DOCTYPE svg PUBLIC "-//W3C//DTD SVG 20010904//EN"
 "http://www.w3.org/TR/2001/REC-SVG-20010904/DTD/svg10.dtd">
<svg version="1.0" xmlns="http://www.w3.org/2000/svg"
 width="512.000000pt" height="512.000000pt" viewBox="0 0 512.000000 512.000000"
 preserveAspectRatio="xMidYMid meet">

<g transform="translate(0.000000,512.000000) scale(0.100000,-0.100000)"
fill="#000000" stroke="none">
<path d="M2505 4826 c-17 -7 -42 -27 -57 -44 -23 -27 -26 -41 -32 -151 -4 -67
-4 -255 0 -418 6 -267 8 -301 25 -329 51 -84 187 -83 239 1 19 31 20 49 20
441 0 388 -1 411 -20 441 -37 61 -114 87 -175 59z"/>
<path d="M981 4193 c-18 -9 -42 -31 -52 -47 -23 -37 -25 -106 -5 -144 25 -47
568 -580 599 -588 91 -22 176 35 185 124 3 40 0 58 -17 85 -24 39 -444 456
-539 535 -70 58 -108 66 -171 35z"/>
<path d="M3995 4191 c-36 -22 -458 -449 -534 -540 -51 -62 -53 -66 -48 -114 8
-88 93 -145 184 -123 29 8 527 494 584 570 71 96 7 226 -111 226 -26 0 -57 -8
-75 -19z"/>
<path d="M2375 3634 c-568 -100 -970 -628 -907 -1192 16 -148 43 -237 112
-377 332 -678 1232 -822 1762 -283 416 423 422 1096 14 1525 -250 264 -628
389 -981 327z"/>
<path d="M349 2677 c-40 -26 -69 -79 -69 -123 0 -36 32 -88 73 -118 27 -20 37
-20 440 -18 459 2 434 -2 485 73 42 61 18 153 -50 193 -23 14 -80 16 -436 16
-409 0 -409 0 -443 -23z"/>
<path d="M3905 2690 c-11 -4 -33 -22 -49 -39 -39 -41 -47 -120 -17 -168 42
-67 41 -67 490 -65 366 2 406 3 434 19 95 56 99 179 8 240 -34 23 -34 23 -440
22 -223 0 -415 -4 -426 -9z"/>
<path d="M1495 1692 c-43 -27 -566 -562 -576 -590 -23 -60 3 -141 55 -173 37
-22 106 -25 144 -5 15 8 152 140 304 294 233 235 278 285 283 316 11 56 -2 99
-40 136 -44 42 -122 53 -170 22z"/>
<path d="M3483 1694 c-65 -32 -93 -127 -59 -192 14 -25 409 -422 538 -540 52
-48 61 -52 105 -52 54 0 95 22 124 66 23 35 25 104 5 142 -17 32 -452 464
-544 540 -70 58 -108 66 -169 36z"/>
<path d="M2483 1281 c-61 -38 -66 -62 -71 -306 -2 -121 1 -309 5 -417 l8 -197
29 -30 c54 -56 134 -64 190 -20 56 44 56 44 56 479 0 432 0 428 -54 479 -36
34 -118 40 -163 12z"/>
</g>
</svg>
